<?xml version="1.0" encoding="UTF-8"?>
<svg width="26" height="36" viewBox="0 0 48 48" fill="none" xmlns="http://www.w3.org/2000/svg">
    <circle cx="24" cy="24" r="23" fill="#25D366" stroke="white" stroke-width="2"/>
    <path fill-rule="evenodd" clip-rule="evenodd" d="M24.7911 37.3526H24.7852C22.3967 37.3517 20.0498 36.7525 17.9653 35.6155L10.4 37.6L12.4321 30.2252C11.1757 28.0558 10.5186 25.5931 10.5196 23.0807C10.5228 15.9112 16.6209 10.1483 24.7911 10.1483C28.7652 10.1496 32.4878 11.6872 35.2854 14.4891C38.0831 17.291 39.6159 21.0178 39.6147 24.9964C39.6115 32.1658 33.5133 37.3526 24.7911 37.3526ZM18.3159 32.8371L18.749 33.09C20.5702 34.1075 22.6578 34.6471 24.7863 34.6483H24.7911C32.0104 34.6483 36.9074 30.0126 36.9103 24.9953C36.9114 21.6882 35.6124 18.5725 33.2452 16.2022C30.8781 13.8318 27.7663 12.5305 24.4632 12.5294C17.2397 12.5294 12.3427 17.1651 12.3398 22.1824C12.3387 24.4661 13.0064 26.6825 14.2616 28.5741L14.5301 29.0072L13.3296 33.4417L18.3159 32.8371ZM31.4924 26.8491C31.7411 26.9571 31.9091 27.0327 31.9808 27.1454C32.0699 27.2852 32.0699 28.0078 31.7729 28.8415C31.4756 29.6751 30.051 30.4399 29.3659 30.5538C28.7516 30.6571 27.9741 30.7016 27.1199 30.4055C26.602 30.2328 25.9379 30.0052 25.0871 29.6396C21.7442 28.3476 19.4161 25.1193 19.0756 24.6618C19.0499 24.6273 19.0317 24.6037 19.0213 24.5924L19.0199 24.5909C18.8668 24.4124 17.8047 23.0278 17.8047 21.5899C17.8047 20.2247 18.5272 19.4476 18.8332 19.1148C18.8484 19.0983 18.8626 19.0831 18.8757 19.0691C19.1387 18.7886 19.4465 18.7026 19.6399 18.7026C19.8333 18.7026 20.0266 18.7037 20.1955 18.7136C20.2087 18.7142 20.2224 18.7147 20.2365 18.7153C20.4132 18.7218 20.6323 18.7301 20.8429 19.2001C20.9597 19.4626 21.1513 19.9171 21.3512 20.3932C21.5515 20.8697 21.7602 21.3667 21.8359 21.4809C21.9494 21.6516 22.0251 21.8599 21.8738 22.1059C21.8546 22.1384 21.8367 22.1685 21.8198 22.1971C21.7251 22.3452 21.6574 22.4505 21.5386 22.5891C21.4809 22.6555 21.421 22.7269 21.3611 22.7982C21.2413 22.9407 21.1215 23.0833 21.0195 23.1852C20.8488 23.3559 20.6707 23.5416 20.8754 23.8916C21.0802 24.2415 21.8939 25.5501 23.0787 26.6009C24.3681 27.7484 25.4949 28.2642 26.0578 28.4957C26.1143 28.5171 26.1621 28.5351 26.2004 28.5501C26.5504 28.7253 26.7583 28.6873 26.9535 28.4634C27.1488 28.2394 27.9115 27.3561 28.1442 27.0062C28.377 26.6562 28.6098 26.7319 28.9357 26.8451C29.2615 26.9584 30.9799 27.8034 31.4924 26.8491Z" fill="white"/>
</svg> 